<?xml version="1.0" standalone="no"?>
<!DOCTYPE svg PUBLIC "-//W3C//DTD SVG 20010904//EN"
 "http://www.w3.org/TR/2001/REC-SVG-20010904/DTD/svg10.dtd">
<svg version="1.0" xmlns="http://www.w3.org/2000/svg"
 width="260.000000pt" height="260.000000pt" viewBox="0 0 260.000000 260.000000"
 preserveAspectRatio="xMidYMid meet">
<metadata>
Created by potrace 1.14, written by Peter Selinger 2001-2017
</metadata>
<g transform="translate(0.000000,260.000000) scale(0.100000,-0.100000)"
fill="#000000" stroke="none">
<path d="M630 1190 l0 -730 160 0 160 0 0 391 c0 229 4 389 9 387 5 -1 221
-191 480 -421 258 -229 473 -417 476 -417 3 0 5 329 5 730 l0 730 -165 0 -165
0 -2 -391 -3 -390 -473 420 c-260 232 -475 421 -478 421 -2 0 -4 -328 -4 -730z"/>
</g>
</svg>
